<svg width="24" height="24" viewBox="0 0 24 24" fill="none" xmlns="http://www.w3.org/2000/svg">
<mask id="mask0_1_5385" style="mask-type:alpha" maskUnits="userSpaceOnUse" x="0" y="0" width="24" height="24">
<path d="M24 0H0V24H24V0Z" fill="white"/>
</mask>
<g mask="url(#mask0_1_5385)">
<path d="M20.0035 22.664C18.5235 22.664 17.3335 21.474 17.3335 20.004C17.3335 18.524 18.5235 17.334 20.0035 17.334C21.4735 17.334 22.6635 18.524 22.6635 20.004C22.6635 21.474 21.4735 22.664 20.0035 22.664ZM17.337 3.33H14.667V0H17.337C19.097 0 20.797 0.7 22.047 1.95C23.297 3.2 23.997 4.9 23.997 6.67V9.33H20.667V6.67C20.667 4.83 19.167 3.33 17.337 3.33ZM9.33 0V3.33H6.67C4.83 3.33 3.33 4.83 3.33 6.67V9.33H0V6.67C0 4.9 0.7 3.2 1.95 1.95C3.2 0.7 4.9 0 6.67 0L9.33 0ZM3.33 17.337C3.34 19.177 4.83 20.667 6.67 20.667H9.33V23.997H6.67C4.9 23.997 3.2 23.297 1.95 22.047C0.7 20.797 0 19.097 0 17.337V14.667H3.33V17.337ZM12.0035 16.664C9.4235 16.664 7.3335 14.574 7.3335 12.004C7.3335 9.424 9.4235 7.334 12.0035 7.334C14.5735 7.334 16.6635 9.424 16.6635 12.004C16.6635 14.574 14.5735 16.664 12.0035 16.664Z" fill="black"/>
</g>
</svg>
