<svg width="566" height="142" viewBox="0 0 566 142" fill="none" xmlns="http://www.w3.org/2000/svg">
<path d="M58 16.1998C58 24.7998 58.2 31.5331 58.4667 31.1998C59.6667 29.8665 60.4 0.666474 59.2667 0.666474C58.5333 0.666474 58 7.53314 58 16.1998Z" fill="black"/>
<path d="M53.5336 14.1999C53.9336 19.0666 54.7336 25.0666 55.3336 27.5332C56.0002 30.3332 56.1336 28.2666 55.6669 21.9999C55.2669 16.4666 54.4002 10.4666 53.8002 8.66657C53.2002 6.66657 53.0669 8.93323 53.5336 14.1999Z" fill="black"/>
<path d="M64.2674 8.26667C63.934 8.86667 63.2674 13.5333 62.8007 18.6667L62.0674 28L63.934 18.0667C65.734 8.66667 65.8007 5.66667 64.2674 8.26667Z" fill="black"/>
<path d="M39.334 8.99994C39.334 10.7333 47.6673 32.7999 48.134 32.3333C48.8007 31.5999 41.934 10.9999 40.4673 9.39994C39.8673 8.73328 39.334 8.53328 39.334 8.99994Z" fill="black"/>
<path d="M73.667 17.6666C68.7337 30.3999 68.1337 32.7332 71.267 27.1332C75.1337 20.0666 79.467 8.66658 78.2003 8.66658C77.667 8.66658 75.6003 12.7332 73.667 17.6666Z" fill="black"/>
<path d="M46.0007 10.3333C46.2007 12.7333 51.4007 30.4667 52.1341 31.1333C52.6674 31.6 52.7341 30.9333 52.2674 29.6667C51.8007 28.3333 50.7341 23.4 49.8674 18.6667C48.8007 12.4667 45.7341 5.79999 46.0007 10.3333Z" fill="black"/>
<path d="M69.5334 12.6667C68.0001 16.8 64.6667 29.2 64.7334 30.6C64.8001 31.3333 66.2667 27.8 68.0667 22.6667C69.8667 17.5333 71.0667 12.7333 70.8001 12C70.5334 11.2667 70.0001 11.5333 69.5334 12.6667Z" fill="black"/>
<path d="M27.3334 25.3332C33.5334 31.5332 38.8001 36.6665 39.0668 36.6665C39.3334 36.6665 34.8668 31.5332 29.1334 25.3332C23.4668 19.0665 18.1334 13.9998 17.4001 13.9998C16.6668 13.9998 21.1334 19.0665 27.3334 25.3332Z" fill="black"/>
<path d="M34.0667 14.3999C34.0001 15.9332 43.7334 32.6665 44.3334 32.0665C45.0001 31.4665 38.9334 19.5332 36.1334 15.9999C35.0001 14.5332 34.0667 13.7999 34.0667 14.3999Z" fill="black"/>
<path d="M26.8003 16.9999C28.667 20.1333 40.867 35.3333 41.6003 35.3333C42.0003 35.3333 41.5337 34.1999 40.467 32.7999C39.467 31.4666 36.267 26.9999 33.3337 22.8666C28.7337 16.4666 24.0003 12.1999 26.8003 16.9999Z" fill="black"/>
<path d="M76.2003 24.5332C69.5336 35.2666 70.067 36.6666 76.867 26.3332C79.9336 21.7332 82.067 17.6666 81.7336 17.2666C81.3336 16.9332 78.867 20.1999 76.2003 24.5332Z" fill="black"/>
<path d="M85.3341 27.5332C74.4008 38.6665 77.2008 37.5998 89.6008 25.8665C97.0674 18.7998 98.8008 16.6665 97.0674 16.6665C96.4674 16.6665 91.1341 21.5332 85.3341 27.5332Z" fill="black"/>
<path d="M79.534 27.7333L72.334 37.3333L79.2007 29.9999C86.4007 22.2666 89.4673 17.9999 87.734 18.0666C87.134 18.0666 83.4673 22.3999 79.534 27.7333Z" fill="black"/>
<path d="M16.7999 22.9333C17.0666 23.6667 20.9333 27.1333 25.3333 30.6667C37.1333 40.0667 38.2666 40.7333 30.7333 33.6C22.9333 26.2 16.0666 20.9333 16.7999 22.9333Z" fill="black"/>
<path d="M16.667 32.6665C16.667 33.9998 33.8003 43.9332 34.667 43.1332C34.9337 42.7998 31.0003 40.0665 25.9337 36.9998C20.867 33.9332 16.667 31.9998 16.667 32.6665Z" fill="black"/>
<path d="M11.334 36.5999C11.334 37.7999 32.534 46.5332 33.4006 45.7332C33.6673 45.4666 28.8007 43.0666 22.6007 40.3999C16.4007 37.7332 11.334 36.0666 11.334 36.5999Z" fill="black"/>
<path d="M50.5337 42.1334C36.4003 46.2 38.5337 59.4667 54.867 68.6667C73.1337 79 62.6003 95 43.0003 86.6667C41.4003 86 40.667 86.3334 40.667 87.6667C40.667 93 62.067 92.8 67.467 87.4667C75.7337 79.1334 72.6003 71.7334 56.4003 61.5334C41.4003 52.1334 46.6003 39.8667 62.667 46.6C68.867 49.2 68.667 49.2 68.667 46.0667C68.667 44.6667 67.6003 43.2 66.3337 42.8667C60.667 41.3334 54.3337 41 50.5337 42.1334Z" fill="black"/>
<path d="M191.067 41.5999C186.401 42.3332 180.667 49.1332 180.667 53.9332C180.667 58.5332 184.534 62.7332 194.267 68.5999C212.067 79.2666 203.601 92.8666 183.001 86.7999C178.201 85.3999 178.001 88.1999 182.734 89.9999C206.467 99.0666 221.667 78.1332 200.934 65.0666C189.534 57.9332 187.334 55.5332 187.334 50.3999C187.334 43.9332 191.201 43.3332 205.934 47.4666C207.001 47.7332 208.067 46.9999 208.334 45.7999C208.601 44.4666 207.801 43.2666 206.401 42.8666C202.001 41.6666 194.734 41.0666 191.067 41.5999Z" fill="black"/>
<path d="M418 42.6667C406.4 46.3334 400.667 54.8667 400.667 68.2667C400.8 98.8 443.467 99.6667 448.067 69.2667C450.867 50.8 435.4 37.1334 418 42.6667ZM433.334 47.5334C443.4 55.4667 442.867 79.2 432.534 86.4667C425.667 91.2667 414.667 88.4667 410.8 80.9334C400.534 61.0667 417.867 35.4 433.334 47.5334Z" fill="black"/>
<path d="M82 60.0666C82 86.0666 85.1333 91.3333 100.667 91.3333C109.333 91.3333 115 88.3999 117.467 82.5999C120.2 76.0666 120.133 41.9999 117.4 41.9999C115.867 41.9999 115.533 45.3332 115.733 61.2666C116.067 83.5333 114.533 86.8666 103.867 88.1333C91.5333 89.5999 88.1333 82.7999 89 58.3333L89.6 41.9999H85.8H82V60.0666Z" fill="black"/>
<path d="M131.334 66.8C131.334 86 131.734 91.4 133.001 91C134.267 90.6 134.534 85.6666 134.201 70.8666C133.934 60.1333 134.001 51.3333 134.401 51.3333C134.801 51.3333 142.134 60.2 150.734 71C159.334 81.8 166.867 90.8666 167.534 91.1333C168.134 91.3333 168.667 80.4 168.667 66.8C168.667 44.9333 168.401 41.9999 166.534 41.9999C164.667 41.9999 164.467 44.1333 164.867 59.3333C165.134 68.8666 165.001 76.6666 164.534 76.6666C164.134 76.6666 157.667 68.8666 150.134 59.3333C131.267 35.2666 131.334 35.2666 131.334 66.8Z" fill="black"/>
<path d="M222.867 66.2665C223.134 90.1998 223.2 90.6665 225.934 90.6665C228.734 90.6665 228.8 90.2665 228.8 66.6665V42.6665L225.734 42.2665L222.667 41.8665L222.867 66.2665Z" fill="black"/>
<path d="M242.867 66.3333L243 90.6667L251.934 91.0667C274.8 92.0667 286.867 81.3333 284.067 62.5333C282.134 49.7333 270.134 42 252.067 42H242.667L242.867 66.3333ZM268.467 48.5333C284.667 60.0667 277.467 86.2 257.467 88.2667L250 89.0667V67.6C250 48.3333 250.267 46.1333 252.334 45.5333C256.667 44.2667 264.534 45.7333 268.467 48.5333Z" fill="black"/>
<path d="M295.334 66.7332V91.3999L309.667 91.0666C322.267 90.7332 324.001 90.3999 324.401 88.2666C324.867 85.8666 316.267 85.7999 305.001 88.1332C302.067 88.7332 302.001 88.3999 302.001 77.5999V66.4666L310.001 67.0666C316.934 67.5999 318.001 67.3332 318.001 65.3332C318.001 63.2666 317.001 63.0666 310.001 63.6666L302.001 64.3999V55.1999C302.001 44.4666 303.267 43.5332 315.467 45.7999C322.401 47.0666 324.601 46.3999 324.667 42.9999C324.667 42.4666 318.067 41.9999 310.001 41.9999H295.334V66.7332Z" fill="black"/>
<path d="M354 66.6665V91.3332H358.133H362.267L361.8 79.1332L361.333 66.9332L372.667 66.9999H384V78.7999V90.6665L387.667 91.0665L391.333 91.5332V66.7332V41.9999H387.467H383.533L383.8 52.8665L384 63.7999H372.733L361.4 63.8665L361.8 52.9332L362.2 41.9999H358.133H354V66.6665Z" fill="black"/>
<path d="M451.6 44.3332C452 46.0666 453.067 46.5332 456.067 46.1332C458.2 45.7999 461.533 45.5332 463.333 45.4666L466.667 45.3332L467 68.3333L467.4 91.3333H470.667H473.933L474.333 68.3333L474.667 45.3332L478 45.4666C479.867 45.5332 483.133 45.7999 485.267 46.1332C488.267 46.5332 489.333 46.0666 489.733 44.3332C490.133 42.1999 488.533 41.9999 470.667 41.9999C452.8 41.9999 451.2 42.1999 451.6 44.3332Z" fill="black"/>
<path d="M496.667 66.6666V91.3333H511.2C523.4 91.3333 525.867 90.9999 526.534 89.1333C527.8 85.8666 527.134 85.7333 515.8 87.0666C503 88.5999 503.134 88.7333 503.6 76.5333L504 66.6666L512.334 67.1333C519.467 67.5333 520.667 67.2666 520.667 65.3333C520.667 63.3999 519.467 63.1333 512.334 63.5333L504 63.9999L503.6 55.1333C503.134 44.0666 507.734 42.1999 523.667 46.7999C525.334 47.3332 526 46.7332 526 44.7332C526 42.1332 525.267 41.9999 511.334 41.9999H496.667V66.6666Z" fill="black"/>
<path d="M538 66.6666V91.3333H551.4C562.2 91.3333 564.933 90.9333 565.533 89.2666C566.733 86.1333 565.733 85.8666 558.2 87.2666C545.6 89.6666 545.733 89.9333 545.933 64.2666L546.133 41.9999H542.067H538V66.6666Z" fill="black"/>
<path d="M11.334 44.2667C11.334 45.5333 28.4673 49.2667 29.534 48.2667C29.8007 48 26.534 47 22.334 46.0667C18.134 45.0667 13.934 44.0667 13.0007 43.6667C12.0673 43.3333 11.334 43.6 11.334 44.2667Z" fill="black"/>
<path d="M8.6674 51.2665C11.8674 52.3332 32.3341 53.1999 31.2007 52.1999C30.9341 51.8665 25.0007 51.3332 18.0007 50.9332C10.4007 50.4665 6.6674 50.5999 8.6674 51.2665Z" fill="black"/>
<path d="M0.666992 56.5332C0.666992 57.5332 28.7337 57.1332 32.0003 55.9999C32.7337 55.7332 26.0003 55.4666 17.0003 55.4666C8.00033 55.3999 0.666992 55.8666 0.666992 56.5332Z" fill="black"/>
<path d="M20.6668 59.5999C9.46682 61.5332 6.53349 62.2666 8.13349 62.8666C9.86682 63.5332 31.1335 59.9332 32.3335 58.7999C33.3335 57.7999 29.9335 57.9999 20.6668 59.5999Z" fill="black"/>
<path d="M20.6668 66.4001C15.9335 67.9334 12.9335 69.4001 14.0668 69.6667C15.2001 69.8667 20.0001 68.6001 24.7335 66.8001C35.1335 62.8001 32.6668 62.5334 20.6668 66.4001Z" fill="black"/>
<path d="M30.6671 67.3999C29.2004 68.0666 24.4004 70.1999 20.0004 72.1999C15.6004 74.1332 12.6671 75.9332 13.5337 76.2666C14.4004 76.5332 19.4004 74.6666 24.6671 71.9999C37.0004 65.7999 38.0004 66.7999 26.7337 74.0666C21.9337 77.1332 18.0004 80.1999 18.0004 80.7332C18.0004 81.3332 22.2004 78.9999 27.2671 75.5999C35.8004 69.7999 37.8004 67.3332 34.6004 66.5332C33.8671 66.3332 32.1337 66.7332 30.6671 67.3999Z" fill="black"/>
<path d="M29.3341 78.1334C24.2008 82.5334 19.7341 86.8667 19.4674 87.7334C18.9341 89.2667 37.3341 73.5334 38.7341 71.2001C40.0674 69.1334 38.8674 70.0001 29.3341 78.1334Z" fill="black"/>
<path d="M30.0004 83.9999C23.8004 90.1999 19.3338 95.3333 20.0671 95.3333C21.3338 95.3333 34.2004 82.5999 39.9338 75.6666C44.9338 69.6666 41.0004 72.9333 30.0004 83.9999Z" fill="black"/>
<path d="M139.934 110.933C138.334 112.533 137.867 114.667 138.334 118.6C138.867 123.6 138.6 124.133 134.8 126C129.534 128.533 128.467 134.867 132.667 138.667C136.134 141.8 143.667 142 146.934 139.067C149 137.133 149.734 137.133 152.667 138.733C154.534 139.733 157.534 140.533 159.334 140.533C162.134 140.467 161.734 140.067 157 137.933C153.867 136.6 151.334 135.133 151.334 134.8C151.334 133.2 157.067 124.667 158.134 124.667C158.8 124.667 159.334 124.2 159.334 123.533C159.334 122.933 157.534 122.733 155.334 123.067C153.134 123.4 151.667 124.133 152.067 124.733C153.2 126.6 151.134 132.8 149.534 132.267C146.667 131.333 142.067 121.333 142 116.133C142 111 142 111 146.667 111.733C150.2 112.333 151.334 112 151.334 110.6C151.334 107.867 142.734 108.067 139.934 110.933ZM143.867 130.867C147.6 135.533 147.667 135.8 145.267 137.533C138.134 142.733 129.867 134.267 136.067 128.067C139 125.2 139.467 125.333 143.867 130.867Z" fill="black"/>
<path d="M185.867 111.733C169.734 122.6 180.4 144.933 200 141.267C207 139.933 205.6 138.333 198.067 139C188.667 139.933 183.334 134.8 183.334 124.733C183.334 114.533 187.534 110.667 197.467 111.867C204.267 112.667 207.2 111.267 202.534 109.467C198 107.733 190.267 108.733 185.867 111.733Z" fill="black"/>
<path d="M215.733 111.267C202.667 119.267 207.6 141.533 222.4 141.2C230.467 141.067 236.133 136.867 238.067 129.667C242.2 114.4 228.733 103.333 215.733 111.267ZM230.6 113.933C236.333 120.267 233.733 137 226.733 138.733C213.733 142 207.667 125.133 217.733 113.667C220.467 110.533 227.667 110.667 230.6 113.933Z" fill="black"/>
<path d="M245.533 109.533C244.133 111 244.533 140.667 245.933 140.667C246.667 140.667 247.4 135.133 247.6 128.4L248 116.133L257.8 128.4C263.133 135.133 267.8 140.667 268.133 140.667C268.4 140.667 268.667 133.4 268.667 124.6C268.667 113.067 268.267 108.8 267.2 109.4C266.133 110.067 266 113.667 266.6 120.867C267.733 133.867 267.333 133.867 256.733 119.933C248.067 108.667 247.2 107.867 245.533 109.533Z" fill="black"/>
<path d="M277.934 109.267C277 123 278.067 140.067 279.867 140.4C281.6 140.8 282 139.4 282 132.667V124.467L286.6 124.867C289.134 125.067 291.6 124.8 292.134 124.267C292.667 123.733 290.6 123.333 287.534 123.333H282V117.2V111.067L288.334 111.533C291.8 111.8 295 111.4 295.334 110.667C295.734 109.867 292.467 109.2 287 108.933C282.067 108.733 278 108.867 277.934 109.267Z" fill="black"/>
<path d="M300.667 124.667V140.667H310C316 140.667 319.334 140.133 319.334 139.2C319.334 138.2 316.867 137.867 312 138.267L304.667 138.867V131.6V124.333L310 125C312.934 125.4 315.334 125.2 315.334 124.533C315.334 123.867 312.934 123.333 310 123.333H304.667V117.133V110.933L312 111.8C318 112.533 319.334 112.333 319.334 110.667C319.334 109.067 317.4 108.667 310 108.667H300.667V124.667Z" fill="black"/>
<path d="M327.334 124.667C327.334 138 327.667 140.667 329.334 140.667C330.867 140.667 331.334 138.933 331.334 133.333C331.334 123.6 333.601 123.733 340.801 133.867C344.934 139.8 346.934 141.533 348.867 141C351.067 140.4 350.601 139.467 345.201 133.133C341.801 129.133 339.267 125.733 339.534 125.6C344.201 123.067 345.334 122.2 346.467 120.467C350.334 114.333 343.267 108.667 331.667 108.667H327.334V124.667ZM341.267 113.4C345.401 117.6 341.201 124.667 334.667 124.667C331.534 124.667 331.334 124.2 331.334 118C331.334 110.667 336.267 108.467 341.267 113.4Z" fill="black"/>
<path d="M357.6 109.533C357.067 110 356.667 117.267 356.667 125.533V140.667H366.667C373.2 140.667 376.667 140.133 376.667 139.2C376.667 138.2 374.2 137.867 369.334 138.267L362 138.867V131.6V124.333L366.667 125.067C369.2 125.467 371.6 125.267 372.067 124.6C372.467 123.867 370.4 123.333 367.4 123.333H362V117.2V111.067L368.334 111.533C371.8 111.8 375 111.4 375.334 110.667C376.067 109.133 359.067 108 357.6 109.533Z" fill="black"/>
<path d="M384.2 109.533C382.8 111 383.2 140.667 384.6 140.667C385.334 140.667 386.067 135.133 386.267 128.4L386.667 116.133L396.467 128.4C401.8 135.133 406.467 140.667 406.8 140.667C407.067 140.667 407.334 133.4 407.334 124.6C407.334 112.933 406.934 108.8 405.8 109.467C404.8 110.067 404.6 113.6 405.2 120.867C406.267 133.867 406 133.8 395.334 120C386.6 108.667 385.867 107.933 384.2 109.533Z" fill="black"/>
<path d="M424.667 109.6C411.934 114.4 409.134 130.733 419.734 138.267C424.334 141.6 436.734 142.467 439.534 139.667C440.667 138.533 439.267 138.333 433.8 138.933C423.867 139.933 419.267 136.267 418.334 126.533C417.334 116.133 422.4 110.733 432.267 111.733C439 112.467 441.734 111.2 437.2 109.467C434.667 108.533 427.467 108.6 424.667 109.6Z" fill="black"/>
<path d="M446 124.667V140.667H455.333C461.333 140.667 464.667 140.133 464.667 139.2C464.667 138.2 462.2 137.867 457.333 138.267L450 138.867V131.6V124.333L455.333 125C458.267 125.4 460.667 125.2 460.667 124.533C460.667 123.867 458.2 123.333 455.267 123.333H449.867L450.267 117.667L450.667 112L457.667 112.2C462.867 112.333 464.667 111.867 464.667 110.533C464.667 109.133 462.4 108.667 455.333 108.667H446V124.667Z" fill="black"/>
</svg>
