<svg width="24" height="24" viewBox="0 0 24 24" fill="none" xmlns="http://www.w3.org/2000/svg">
<path d="M19.62 11.667C19.62 16.277 16.81 17.297 14.14 17.587C14.56 17.947 14.95 18.687 14.95 19.807C14.95 21.417 14.94 22.707 14.94 23.097C14.94 23.407 15.15 23.787 15.76 23.667C20.57 22.097 24 17.597 24 12.297C24 5.667 18.63 0.296997 12 0.296997C5.37 0.296997 0 5.667 0 12.297C0 17.597 3.44 22.097 8.21 23.687C8.81 23.797 9.03 23.427 9.03 23.107C9.03 22.817 9.02 22.067 9.01 21.067C5.67 21.787 4.97 19.457 4.97 19.457C4.42 18.067 3.63 17.697 3.63 17.697C2.55 16.957 3.72 16.967 3.72 16.967C4.92 17.057 5.56 18.207 5.56 18.207C6.63 20.047 8.36 19.517 9.05 19.207C9.16 18.427 9.47 17.897 9.81 17.597C7.15 17.297 4.34 16.267 4.34 11.667C4.34 10.357 4.81 9.287 5.58 8.447C5.44 8.147 5.04 6.927 5.68 5.277C5.68 5.277 6.69 4.957 8.98 6.507C9.94 6.237 10.96 6.107 11.98 6.097C13 6.107 14.02 6.237 14.98 6.507C17.26 4.957 18.27 5.277 18.27 5.277C18.91 6.927 18.51 8.147 18.39 8.447C19.15 9.287 19.62 10.357 19.62 11.667Z" fill="black"/>
</svg>
