<?xml version="1.0" standalone="no"?>
<!DOCTYPE svg PUBLIC "-//W3C//DTD SVG 20010904//EN"
 "http://www.w3.org/TR/2001/REC-SVG-20010904/DTD/svg10.dtd">
<svg version="1.0" xmlns="http://www.w3.org/2000/svg"
 width="302.000000pt" height="254.000000pt" viewBox="0 0 302.000000 254.000000"
 preserveAspectRatio="xMidYMid meet">
<metadata>
Created by potrace 1.10, written by Peter Selinger 2001-2011
</metadata>
<g transform="translate(0.000000,254.000000) scale(0.050000,-0.050000)"
fill="#000000" stroke="none">
<path d="M2436 4795 c-223 -250 -269 -330 -404 -698 -22 -60 -49 -98 -78 -108
-134 -46 -129 -40 -68 -70 46 -22 50 -29 25 -44 -17 -9 -31 -37 -31 -61 0 -24
7 -35 15 -24 8 11 53 20 100 20 l85 0 0 -92 c0 -283 -23 -395 -82 -408 -98
-22 -239 10 -258 58 -14 37 -21 31 -60 -55 -24 -54 -36 -105 -27 -114 32 -31
308 -43 342 -15 19 16 110 28 246 33 197 7 220 12 261 55 l45 48 -189 0 -188
0 13 245 c29 520 112 839 314 1201 113 202 99 209 -61 29z"/>
<path d="M2995 4796 c-192 -413 -315 -1126 -315 -1822 l0 -169 -68 -33 c-37
-17 -91 -32 -120 -32 -38 0 -52 -10 -52 -38 0 -107 159 -120 316 -26 126 76
164 85 59 13 -81 -55 -85 -73 -76 -379 10 -324 206 -1036 293 -1064 82 -26
332 943 275 1064 -21 43 46 -51 98 -138 110 -186 124 -109 23 129 -56 132 -69
185 -59 244 7 45 3 75 -9 75 -11 0 -20 9 -20 20 0 11 22 20 48 20 30 0 69 24
100 62 85 101 71 117 -63 70 l-79 -28 10 186 9 186 -61 32 c-104 54 -104 53
-104 -263 0 -517 -58 -1065 -120 -1131 -55 -60 -103 460 -96 1036 l6 480 78 6
c50 4 134 -13 225 -46 l146 -54 61 44 c72 51 62 73 -59 132 -74 35 -81 45 -81
118 -1 226 -134 882 -231 1144 -89 238 -95 246 -134 162z m114 -852 c25 -76
91 -397 91 -445 0 -6 -33 -13 -73 -16 -40 -2 -87 -12 -105 -22 -52 -27 -183
-59 -173 -42 6 9 36 21 68 27 l57 12 23 230 c39 386 56 424 112 256z"/>
<path d="M3462 4712 c128 -81 195 -187 250 -392 45 -169 60 -183 118 -116 102
119 -146 507 -346 541 -30 5 -72 16 -94 24 -22 8 10 -18 72 -57z"/>
<path d="M4660 4128 c0 -7 27 -43 59 -80 123 -140 147 -426 71 -841 -59 -319
-54 -307 -140 -307 -72 0 -387 -92 -419 -122 -31 -30 103 -21 182 12 90 38
136 38 166 1 13 -16 52 -35 86 -42 51 -11 56 -17 28 -32 -18 -11 -46 -44 -62
-75 -16 -31 -62 -99 -102 -151 -82 -109 -81 -124 9 -79 35 17 75 27 89 22 52
-20 133 82 133 168 0 25 5 39 12 33 54 -55 -98 -890 -203 -1113 -86 -183 -80
-192 42 -58 102 114 169 240 219 416 31 109 30 38 -1 -100 -10 -43 -8 -45 11
-15 46 73 84 350 87 641 l3 295 150 -5 150 -6 18 -165 c18 -167 -3 -384 -35
-365 -23 14 -78 -96 -61 -124 8 -12 5 -17 -5 -10 -30 18 -95 -103 -70 -132 10
-13 28 -55 38 -94 l18 -70 61 66 c33 37 100 136 148 220 l88 154 0 250 c0 137
-7 283 -16 324 -15 72 -14 73 50 80 l66 6 -82 37 c-77 36 -83 45 -123 190 -76
275 -221 610 -356 824 -56 90 -309 291 -309 247z m427 -944 c82 -262 84 -284
27 -284 -27 0 -77 -6 -112 -12 -76 -16 -78 7 -29 285 39 217 49 218 114 11z"/>
<path d="M3832 3985 c-7 -7 22 -49 65 -94 89 -93 136 -206 160 -386 l16 -125
-69 0 c-113 0 -222 -42 -311 -121 l-83 -74 -7 -276 c-8 -340 14 -414 159 -529
108 -85 186 -110 281 -89 61 13 62 12 48 -44 -8 -31 -23 -111 -34 -177 -78
-499 -194 -813 -370 -1009 -109 -122 -110 -139 -2 -64 356 245 567 715 609
1358 19 280 12 289 -132 194 -236 -156 -322 -77 -322 295 1 277 4 295 70 332
22 13 30 23 18 23 -12 1 -55 -21 -95 -48 -83 -56 -100 -35 -22 26 115 90 369
68 369 -33 l0 -51 61 58 c102 98 76 265 -72 458 -55 73 -55 118 1 71 16 -14
30 -17 30 -7 0 91 -319 361 -368 312z"/>
<path d="M671 3869 c-47 -48 -33 -137 23 -145 57 -8 130 65 122 122 -8 56 -97
70 -145 23z"/>
<path d="M1145 3768 c-73 -31 -80 -54 -90 -265 -5 -111 -15 -154 -41 -172 -39
-29 -50 -925 -15 -1196 27 -214 232 -667 315 -697 43 -16 30 91 -15 122 -63
43 -201 750 -156 795 20 20 32 864 12 852 -8 -5 -15 4 -15 20 0 30 236 70 274
47 10 -6 20 -175 23 -374 l6 -364 -82 -70 c-110 -94 -102 -117 18 -56 55 27
112 50 126 50 21 0 25 41 19 187 l-9 187 96 13 c52 7 150 13 217 13 l122 0 -7
-164 c-25 -628 169 -1292 458 -1566 l63 -60 -70 130 c-163 302 -211 576 -219
1255 l-5 425 110 -1 c61 0 146 -13 189 -29 104 -37 106 -30 19 55 -71 69 -188
115 -294 115 -46 0 -48 5 -34 80 14 75 12 80 -34 80 -83 0 -166 -55 -166 -111
0 -37 -11 -49 -45 -50 -25 -1 -121 -26 -215 -57 l-170 -56 -14 72 c-32 170
-19 301 39 377 39 52 45 69 21 60 -18 -7 -110 -19 -204 -27 -221 -17 -225 -8
-140 357 14 62 6 64 -87 23z"/>
<path d="M690 3642 c-108 -22 -177 -81 -141 -121 52 -57 46 -1406 -6 -1458
-32 -32 -33 -42 -10 -74 15 -20 27 -53 27 -73 0 -52 24 -45 95 29 124 129 122
111 123 915 1 404 7 749 14 767 13 35 2 37 -102 15z"/>
<path d="M1863 675 c-21 -47 -71 -155 -110 -240 -63 -135 -67 -155 -37 -155
23 0 45 26 61 70 38 105 203 106 264 2 24 -39 61 -72 90 -77 59 -11 60 -6 11
62 -20 29 -79 136 -130 238 -107 215 -99 209 -149 100z m66 -114 c44 -84 39
-101 -29 -101 -67 0 -69 7 -38 97 27 77 30 77 67 4z"/>
<path d="M3268 731 c-230 -100 -127 -450 133 -451 75 0 119 29 119 77 0 24 -6
23 -37 -4 -149 -135 -346 167 -202 311 60 60 85 63 187 24 20 -8 32 -2 32 17
0 18 -26 35 -62 43 -84 16 -98 15 -170 -17z"/>
<path d="M1100 699 c0 -34 8 -39 45 -27 105 33 105 33 105 -197 0 -205 2 -215
42 -215 40 0 42 9 40 215 l-2 215 120 0 c219 1 116 40 -120 46 -222 5 -230 4
-230 -37z"/>
<path d="M2514 508 c-122 -243 -135 -299 -44 -179 82 107 264 108 327 1 37
-62 103 -97 103 -54 0 8 -43 114 -96 235 -129 297 -140 297 -290 -3z m193 22
l31 -90 -89 0 c-104 0 -101 -6 -45 108 50 105 62 103 103 -18z"/>
<path d="M3758 682 c-170 -171 101 -517 293 -373 36 27 33 28 -37 17 -138 -21
-257 143 -208 288 25 75 27 76 121 73 80 -3 91 1 72 25 -43 51 -175 35 -241
-30z"/>
<path d="M4299 711 c16 -19 22 -95 17 -230 l-6 -201 205 0 c151 0 205 7 205
25 0 18 -44 25 -155 25 l-155 0 -6 85 -6 85 81 0 c59 0 81 8 81 30 0 22 -22
30 -80 30 -78 0 -80 2 -80 70 l0 70 119 0 c65 0 124 9 131 20 8 13 -57 20
-181 20 -166 0 -190 -4 -170 -29z"/>
</g>
</svg>
