<svg width="14" height="14" viewBox="0 0 14 14" fill="none" xmlns="http://www.w3.org/2000/svg">
<g clip-path="url(#clip0_1222_34427)">
<path d="M13.4394 6.94593C13.4296 5.78116 13.104 4.64085 12.4974 3.64647C11.8907 2.6521 11.0257 1.84089 9.99445 1.29926C8.96321 0.757627 7.80436 0.505851 6.64135 0.570749C5.47833 0.635645 4.3547 1.01478 3.39014 1.66779L0.508358 0.611318L1.19164 4.22194C0.773235 5.09611 0.557512 6.05343 0.560592 7.02257C0.563673 7.99171 0.785453 8.94765 1.20945 9.81914C1.63335 10.6906 2.24859 11.4552 3.0092 12.0558C3.76971 12.6564 4.65606 13.0777 5.6021 13.288C6.54812 13.4984 7.52943 13.4927 8.47288 13.271C9.41634 13.0493 10.2976 12.6176 11.051 12.008C11.8043 11.3983 12.4104 10.6265 12.8239 9.75002C13.2375 8.87355 13.4479 7.91504 13.4394 6.94593Z" stroke="black" stroke-linecap="round" stroke-linejoin="round"/>
<path d="M3.69995 8C4.19995 9.8 6.19995 10.9 7.99995 10.4C9.09995 10 9.99995 9.1 10.3 8" stroke="black" stroke-linecap="round" stroke-linejoin="round"/>
<path d="M4.75 5.5C4.61193 5.5 4.5 5.38807 4.5 5.25C4.5 5.11193 4.61193 5 4.75 5" stroke="black" stroke-linecap="round" stroke-linejoin="round"/>
<path d="M4.75 5.5C4.88807 5.5 5 5.38807 5 5.25C5 5.11193 4.88807 5 4.75 5" stroke="black" stroke-linecap="round" stroke-linejoin="round"/>
<path d="M9.25 5.5C9.11193 5.5 9 5.38807 9 5.25C9 5.11193 9.11193 5 9.25 5" stroke="black" stroke-linecap="round" stroke-linejoin="round"/>
<path d="M9.25 5.5C9.38807 5.5 9.5 5.38807 9.5 5.25C9.5 5.11193 9.38807 5 9.25 5" stroke="black" stroke-linecap="round" stroke-linejoin="round"/>
</g>
<defs>
<clipPath id="clip0_1222_34427">
<rect width="14" height="14" fill="white"/>
</clipPath>
</defs>
</svg>
