<svg width="14" height="14" viewBox="0 0 14 14" fill="none" xmlns="http://www.w3.org/2000/svg">
<g clip-path="url(#clip0_1222_34427)">
<path d="M6.99815 0.560548C5.83333 0.560911 4.69041 0.877215 3.69113 1.47577C2.69186 2.07433 1.87365 2.93272 1.32365 3.95952C0.773648 4.98632 0.512458 6.14308 0.567896 7.30658C0.623333 8.47009 0.993323 9.59677 1.63846 10.5666L0.558594 13.4397L4.17465 12.7858C5.04539 13.2113 6.00093 13.4348 6.97006 13.4396C7.93919 13.4444 8.8969 13.2304 9.77181 12.8135C10.6467 12.3967 11.4163 11.7877 12.023 11.032C12.6298 10.2764 13.0583 9.3935 13.2763 8.44921C13.4944 7.50493 13.4966 6.5236 13.2826 5.57838C13.0686 4.63315 12.6441 3.74841 12.0406 2.99011C11.4371 2.2318 10.6702 1.6195 9.79714 1.19883C8.92406 0.778157 7.96729 0.559976 6.99815 0.560548Z" stroke="black" stroke-linecap="round" stroke-linejoin="round"/>
<path d="M3.69995 8C4.19995 9.8 6.19995 10.9 7.99995 10.4C9.09995 10 9.99995 9.1 10.3 8" stroke="black" stroke-linecap="round" stroke-linejoin="round"/>
<path d="M4.75 5.5C4.61193 5.5 4.5 5.38807 4.5 5.25C4.5 5.11193 4.61193 5 4.75 5" stroke="black" stroke-linecap="round" stroke-linejoin="round"/>
<path d="M4.75 5.5C4.88807 5.5 5 5.38807 5 5.25C5 5.11193 4.88807 5 4.75 5" stroke="black" stroke-linecap="round" stroke-linejoin="round"/>
<path d="M9.25 5.5C9.11193 5.5 9 5.38807 9 5.25C9 5.11193 9.11193 5 9.25 5" stroke="black" stroke-linecap="round" stroke-linejoin="round"/>
<path d="M9.25 5.5C9.38807 5.5 9.5 5.38807 9.5 5.25C9.5 5.11193 9.38807 5 9.25 5" stroke="black" stroke-linecap="round" stroke-linejoin="round"/>
</g>
<defs>
<clipPath id="clip0_1222_34427">
<rect width="14" height="14" fill="white"/>
</clipPath>
</defs>
</svg>
