<svg width="24" height="24" viewBox="0 0 24 24" fill="none" xmlns="http://www.w3.org/2000/svg">
<mask id="mask0_1_5390" style="mask-type:alpha" maskUnits="userSpaceOnUse" x="0" y="0" width="24" height="24">
<path d="M24 0H0V24H24V0Z" fill="white"/>
</mask>
<g mask="url(#mask0_1_5390)">
<path d="M9.471 5.86998L5.801 2.77998L5.821 2.76998C7.401 1.01998 9.631 0.0199847 11.991 -1.52588e-05C12.701 -1.52588e-05 13.421 0.0899847 14.111 0.269985L14.161 0.289985L9.471 5.86998ZM9.10025 6.179L9.16025 6.229L4.37025 11.919C3.21025 9.029 3.54025 5.619 5.49025 3.149L9.10025 6.179ZM19.293 4.336L15.453 8.896L15.463 8.87601C15.533 8.43601 15.513 8.106 15.443 7.656C15.393 7.296 15.243 6.93601 15.073 6.616C14.253 5.136 12.453 4.436 10.853 4.986C10.843 4.99601 10.833 4.996 10.823 4.996L14.663 0.436005H14.673C16.643 1.116 18.293 2.506 19.293 4.336ZM8.756 9.625C9.456 11.325 11.406 12.215 13.146 11.615L13.176 11.605L8.196 17.525C7.956 17.215 7.706 16.905 7.456 16.595C6.406 15.275 5.306 13.955 4.586 12.415L8.546 7.705V7.715C8.476 8.14501 8.486 8.47501 8.546 8.915C8.596 9.155 8.666 9.39501 8.756 9.625ZM8.494 17.919L19.524 4.799C20.744 7.409 20.464 10.479 19.124 12.969C18.024 15.019 16.374 16.709 15.024 18.589C14.404 19.449 13.784 20.339 13.354 21.309C13.214 21.639 13.094 21.969 12.974 22.309C12.854 22.639 12.744 22.979 12.634 23.309C12.524 23.629 12.394 23.999 12.004 23.999H11.994C11.534 23.999 11.424 23.469 11.304 23.109C11.024 22.239 10.724 21.399 10.284 20.589C9.774 19.649 9.144 18.769 8.494 17.919Z" fill="black"/>
</g>
</svg>
