<svg width="14" height="14" viewBox="0 0 14 14" fill="none" xmlns="http://www.w3.org/2000/svg">
<g clip-path="url(#clip0_1222_34427)">
<path d="M6.98454 13.4398C8.14936 13.4426 9.29313 13.1294 10.294 12.5336C11.2949 11.9377 12.1154 11.0816 12.6682 10.0562C13.221 9.03094 13.4853 7.87489 13.433 6.71124C13.3807 5.54759 13.0138 4.41991 12.3713 3.44834L13.4589 0.57817L9.84111 1.22228C8.97153 0.794427 8.0166 0.568343 7.04748 0.56092C6.07837 0.553497 5.12008 0.764905 4.24405 1.17944C3.36803 1.59387 2.59679 2.20078 1.98805 2.95484C1.3792 3.70879 0.948314 4.59053 0.72776 5.53423C0.507105 6.47791 0.50225 7.45923 0.713691 8.40503C0.925133 9.35083 1.34724 10.2367 1.94868 10.9967C2.55013 11.7566 3.31537 12.371 4.18729 12.794C5.05923 13.217 6.0154 13.4378 6.98454 13.4398Z" stroke="black" stroke-linecap="round" stroke-linejoin="round"/>
<path d="M3.69995 8C4.19995 9.8 6.19995 10.9 7.99995 10.4C9.09995 10 9.99995 9.1 10.3 8" stroke="black" stroke-linecap="round" stroke-linejoin="round"/>
<path d="M4.75 5.5C4.61193 5.5 4.5 5.38807 4.5 5.25C4.5 5.11193 4.61193 5 4.75 5" stroke="black" stroke-linecap="round" stroke-linejoin="round"/>
<path d="M4.75 5.5C4.88807 5.5 5 5.38807 5 5.25C5 5.11193 4.88807 5 4.75 5" stroke="black" stroke-linecap="round" stroke-linejoin="round"/>
<path d="M9.25 5.5C9.11193 5.5 9 5.38807 9 5.25C9 5.11193 9.11193 5 9.25 5" stroke="black" stroke-linecap="round" stroke-linejoin="round"/>
<path d="M9.25 5.5C9.38807 5.5 9.5 5.38807 9.5 5.25C9.5 5.11193 9.38807 5 9.25 5" stroke="black" stroke-linecap="round" stroke-linejoin="round"/>
</g>
<defs>
<clipPath id="clip0_1222_34427">
<rect width="14" height="14" fill="white"/>
</clipPath>
</defs>
</svg>
